TITLE ""
FILE "1Q_t_1649-1658.mp3" MP3
  TRACK 01 AUDIO
    TITLE "1Q_t_1649-1658_01"
    INDEX 01 00:00:00
  TRACK 02 AUDIO
    TITLE "1Q_t_1649-1658_02"
    INDEX 01 00:01:04
  TRACK 03 AUDIO
    TITLE "1Q_t_1649-1658_03"
    INDEX 01 00:01:14
  TRACK 04 AUDIO
    TITLE "1Q_t_1649-1658_04"
    INDEX 01 00:03:07
  TRACK 05 AUDIO
    TITLE "1Q_t_1649-1658_05"
    INDEX 01 00:03:16
  TRACK 06 AUDIO
    TITLE "1Q_t_1649-1658_06"
    INDEX 01 00:07:06
  TRACK 07 AUDIO
    TITLE "1Q_t_1649-1658_07"
    INDEX 01 00:07:55
  TRACK 08 AUDIO
    TITLE "1Q_t_1649-1658_08"
    INDEX 01 00:08:65
  TRACK 09 AUDIO
    TITLE "1Q_t_1649-1658_09"
    INDEX 01 00:08:74
  TRACK 10 AUDIO
    TITLE "1Q_t_1649-1658_10"
    INDEX 01 00:10:60
  TRACK 11 AUDIO
    TITLE "1Q_t_1649-1658_11"
    INDEX 01 00:10:69
  TRACK 12 AUDIO
    TITLE "1Q_t_1649-1658_12"
    INDEX 01 00:16:50
  TRACK 13 AUDIO
    TITLE "1Q_t_1649-1658_13"
    INDEX 01 00:17:24
  TRACK 14 AUDIO
    TITLE "1Q_t_1649-1658_14"
    INDEX 01 00:18:32
  TRACK 15 AUDIO
    TITLE "1Q_t_1649-1658_15"
    INDEX 01 00:18:38
  TRACK 16 AUDIO
    TITLE "1Q_t_1649-1658_16"
    INDEX 01 00:20:74
  TRACK 17 AUDIO
    TITLE "1Q_t_1649-1658_17"
    INDEX 01 00:21:05
  TRACK 18 AUDIO
    TITLE "1Q_t_1649-1658_18"
    INDEX 01 00:24:58
  TRACK 19 AUDIO
    TITLE "1Q_t_1649-1658_19"
    INDEX 01 00:25:30
  TRACK 20 AUDIO
    TITLE "1Q_t_1649-1658_20"
    INDEX 01 00:26:49
  TRACK 21 AUDIO
    TITLE "1Q_t_1649-1658_21"
    INDEX 01 00:26:57
  TRACK 22 AUDIO
    TITLE "1Q_t_1649-1658_22"
    INDEX 01 00:27:66
  TRACK 23 AUDIO
    TITLE "1Q_t_1649-1658_23"
    INDEX 01 00:27:74
  TRACK 24 AUDIO
    TITLE "1Q_t_1649-1658_24"
    INDEX 01 00:34:05
  TRACK 25 AUDIO
    TITLE "1Q_t_1649-1658_25"
    INDEX 01 00:34:52
  TRACK 26 AUDIO
    TITLE "1Q_t_1649-1658_26"
    INDEX 01 00:35:52
  TRACK 27 AUDIO
    TITLE "1Q_t_1649-1658_27"
    INDEX 01 00:35:64
  TRACK 28 AUDIO
    TITLE "1Q_t_1649-1658_28"
    INDEX 01 00:38:30
  TRACK 29 AUDIO
    TITLE "1Q_t_1649-1658_29"
    INDEX 01 00:38:38
  TRACK 30 AUDIO
    TITLE "1Q_t_1649-1658_30"
    INDEX 01 00:42:71
  TRACK 31 AUDIO
    TITLE "1Q_t_1649-1658_31"
    INDEX 01 00:43:43
  TRACK 32 AUDIO
    TITLE "1Q_t_1649-1658_32"
    INDEX 01 00:44:60
  TRACK 33 AUDIO
    TITLE "1Q_t_1649-1658_33"
    INDEX 01 00:44:70
  TRACK 34 AUDIO
    TITLE "1Q_t_1649-1658_34"
    INDEX 01 00:45:72
  TRACK 35 AUDIO
    TITLE "1Q_t_1649-1658_35"
    INDEX 01 00:46:06
  TRACK 36 AUDIO
    TITLE "1Q_t_1649-1658_36"
    INDEX 01 00:51:72
  TRACK 37 AUDIO
    TITLE "1Q_t_1649-1658_37"
    INDEX 01 00:52:44
  TRACK 38 AUDIO
    TITLE "1Q_t_1649-1658_38"
    INDEX 01 00:53:63
  TRACK 39 AUDIO
    TITLE "1Q_t_1649-1658_39"
    INDEX 01 00:53:73
  TRACK 40 AUDIO
    TITLE "1Q_t_1649-1658_40"
    INDEX 01 00:55:09
  TRACK 41 AUDIO
    TITLE "1Q_t_1649-1658_41"
    INDEX 01 00:55:17
  TRACK 42 AUDIO
    TITLE "1Q_t_1649-1658_42"
    INDEX 01 00:59:62
  TRACK 43 AUDIO
    TITLE "1Q_t_1649-1658_43"
    INDEX 01 01:00:36
  TRACK 44 AUDIO
    TITLE "1Q_t_1649-1658_44"
    INDEX 01 01:01:43
  TRACK 45 AUDIO
    TITLE "1Q_t_1649-1658_45"
    INDEX 01 01:01:53
  TRACK 46 AUDIO
    TITLE "1Q_t_1649-1658_46"
    INDEX 01 01:03:58
  TRACK 47 AUDIO
    TITLE "1Q_t_1649-1658_47"
    INDEX 01 01:03:68
  TRACK 48 AUDIO
    TITLE "1Q_t_1649-1658_48"
    INDEX 01 01:11:52
  TRACK 49 AUDIO
    TITLE "1Q_t_1649-1658_49"
    INDEX 01 01:12:22
  TRACK 50 AUDIO
    TITLE "1Q_t_1649-1658_50"
    INDEX 01 01:13:27
  TRACK 51 AUDIO
    TITLE "1Q_t_1649-1658_51"
    INDEX 01 01:13:37
  TRACK 52 AUDIO
    TITLE "1Q_t_1649-1658_52"
    INDEX 01 01:15:45
  TRACK 53 AUDIO
    TITLE "1Q_t_1649-1658_53"
    INDEX 01 01:15:53
  TRACK 54 AUDIO
    TITLE "1Q_t_1649-1658_54"
    INDEX 01 01:20:05
  TRACK 55 AUDIO
    TITLE "1Q_t_1649-1658_55"
    INDEX 01 01:20:52
  TRACK 56 AUDIO
    TITLE "1Q_t_1649-1658_56"
    INDEX 01 01:22:18
  TRACK 57 AUDIO
    TITLE "1Q_t_1649-1658_57"
    INDEX 01 01:22:28
  TRACK 58 AUDIO
    TITLE "1Q_t_1649-1658_58"
    INDEX 01 01:25:07
  TRACK 59 AUDIO
    TITLE "1Q_t_1649-1658_59"
    INDEX 01 01:25:14
  TRACK 60 AUDIO
    TITLE "1Q_t_1649-1658_60"
    INDEX 01 01:29:34
